<svg xmlns="http://www.w3.org/2000/svg" width="608.833" height="464.697" viewBox="0 0 608.833 464.697">
  <g id="Group_3265" data-name="Group 3265" transform="translate(-683 -183)">
    <g id="Group_1935" data-name="Group 1935" transform="translate(567.996 -119.001)">
      <g id="Group_1812" data-name="Group 1812" transform="translate(115.004 439.995)">
        <ellipse id="Ellipse_134" data-name="Ellipse 134" cx="288.546" cy="12.895" rx="288.546" ry="12.895" transform="translate(0 300.915)" fill="#e1ccba" opacity="0.25"/>
        <g id="Group_1811" data-name="Group 1811" transform="translate(53.34 0)">
          <g id="Group_1779" data-name="Group 1779" transform="translate(37.025)">
            <g id="Group_1776" data-name="Group 1776">
              <g id="Group_1775" data-name="Group 1775">
                <rect id="Rectangle_1338" data-name="Rectangle 1338" width="396.362" height="288.425" rx="15.08" fill="#352d42"/>
              </g>
            </g>
            <g id="Group_1778" data-name="Group 1778" transform="translate(17.608 16.596)">
              <g id="Group_1777" data-name="Group 1777">
                <path id="Path_7534" data-name="Path 7534" d="M807.532,727.571v222.6c0,5.295-4.581,9.589-10.231,9.589H456.623a10.523,10.523,0,0,1-7.615-3.183,9.206,9.206,0,0,1-2.623-6.406v-222.6c0-5.295,4.584-9.589,10.237-9.589H797.3a10.665,10.665,0,0,1,5.177,1.32c.157.085.306.176.456.267A9.439,9.439,0,0,1,807.532,727.571Z" transform="translate(-446.386 -717.982)" fill="#202024"/>
              </g>
            </g>
            <path id="Path_7535" data-name="Path 7535" d="M392.345,1497.185v2.93a15.013,15.013,0,0,0,15.013,15.013H773.693a15.014,15.014,0,0,0,15.013-15.013v-2.93Z" transform="translate(-392.345 -1226.704)" fill="#251f2e"/>
            <path id="Path_7536" data-name="Path 7536" d="M526.409,717.982l-65.68,241.78h-4.105a10.523,10.523,0,0,1-7.615-3.183,9.206,9.206,0,0,1-2.623-6.406V909.917l52.139-191.935Z" transform="translate(-428.778 -701.386)" fill="#ffefd1" opacity="0.3" style="mix-blend-mode: screen;isolation: isolate"/>
            <path id="Path_7537" data-name="Path 7537" d="M1105.565,719.569l-65.25,240.193H895.276l65.68-241.78h138.975a10.664,10.664,0,0,1,5.177,1.32C1105.265,719.386,1105.415,719.478,1105.565,719.569Z" transform="translate(-731.408 -701.386)" fill="#ffefd1" opacity="0.3" style="mix-blend-mode: screen;isolation: isolate"/>
            <path id="Path_7538" data-name="Path 7538" d="M699.62,717.982l-65.68,241.78H606.056l65.68-241.78Z" transform="translate(-536.423 -701.386)" fill="#ffefd1" opacity="0.3" style="mix-blend-mode: screen;isolation: isolate"/>
            <path id="Path_7539" data-name="Path 7539" d="M813.9,717.982l-65.68,241.78H720.336l65.68-241.78Z" transform="translate(-613.468 -701.386)" fill="#ffefd1" opacity="0.3" style="mix-blend-mode: screen;isolation: isolate"/>
          </g>
          <g id="Group_1781" data-name="Group 1781" transform="translate(0 279.879)">
            <g id="Group_1780" data-name="Group 1780">
              <path id="Path_7540" data-name="Path 7540" d="M749.123,1526.028v1.367a31.1,31.1,0,0,1-31.106,31.106h-408.2a31.1,31.1,0,0,1-31.106-31.106v-1.367Z" transform="translate(-278.712 -1526.028)" fill="#352d42"/>
            </g>
          </g>
          <g id="Group_1791" data-name="Group 1791" transform="translate(42.195 291.619)">
            <g id="Group_1783" data-name="Group 1783" transform="translate(187.492)">
              <g id="Group_1782" data-name="Group 1782">
                <path id="Path_7541" data-name="Path 7541" d="M992.639,1566.556a4.5,4.5,0,1,1-4.5-4.5A4.5,4.5,0,0,1,992.639,1566.556Z" transform="translate(-983.647 -1562.06)" fill="#4a3f5c"/>
              </g>
            </g>
            <g id="Group_1790" data-name="Group 1790">
              <g id="Group_1785" data-name="Group 1785" transform="translate(171.609)">
                <g id="Group_1784" data-name="Group 1784">
                  <path id="Path_7542" data-name="Path 7542" d="M943.894,1566.556a4.5,4.5,0,1,1-4.5-4.5A4.5,4.5,0,0,1,943.894,1566.556Z" transform="translate(-934.901 -1562.06)" fill="#4a3f5c"/>
                </g>
              </g>
              <g id="Group_1787" data-name="Group 1787" transform="translate(203.374)">
                <g id="Group_1786" data-name="Group 1786">
                  <path id="Path_7543" data-name="Path 7543" d="M1041.384,1566.556a4.5,4.5,0,1,1-4.5-4.5A4.5,4.5,0,0,1,1041.384,1566.556Z" transform="translate(-1032.392 -1562.06)" fill="#4a3f5c"/>
                </g>
              </g>
              <g id="Group_1789" data-name="Group 1789">
                <g id="Group_1788" data-name="Group 1788">
                  <path id="Path_7544" data-name="Path 7544" d="M417.2,1566.556a4.5,4.5,0,1,1-4.5-4.5A4.5,4.5,0,0,1,417.2,1566.556Z" transform="translate(-408.212 -1562.06)" fill="#7fe0aa"/>
                </g>
              </g>
            </g>
          </g>
          <g id="Group_1793" data-name="Group 1793" transform="translate(182.483 279.879)">
            <g id="Group_1792" data-name="Group 1792">
              <path id="Path_7545" data-name="Path 7545" d="M838.773,1526.028v.312c0,2.463,1.649,4.46,3.684,4.46h96.032c2.034,0,3.684-2,3.684-4.46v-.312Z" transform="translate(-838.773 -1526.028)" fill="#4a3f5c"/>
            </g>
          </g>
          <g id="Group_1810" data-name="Group 1810" transform="translate(54.632 16.597)">
            <g id="Group_1795" data-name="Group 1795">
              <g id="Group_1794" data-name="Group 1794">
                <path id="Path_7546" data-name="Path 7546" d="M807.532,728.221v11.333H446.385V728.221a10.246,10.246,0,0,1,10.236-10.237H797.3a10.247,10.247,0,0,1,10.233,10.237Z" transform="translate(-446.385 -717.984)" fill="#fff"/>
              </g>
            </g>
            <g id="Group_1802" data-name="Group 1802" transform="translate(326.661 8.63)">
              <g id="Group_1797" data-name="Group 1797">
                <g id="Group_1796" data-name="Group 1796">
                  <path id="Path_7547" data-name="Path 7547" d="M1454.362,747.177a2.708,2.708,0,1,1-2.708-2.708A2.708,2.708,0,0,1,1454.362,747.177Z" transform="translate(-1448.946 -744.469)" fill="#4683f4"/>
                </g>
              </g>
              <g id="Group_1799" data-name="Group 1799" transform="translate(8.776)">
                <g id="Group_1798" data-name="Group 1798">
                  <path id="Path_7548" data-name="Path 7548" d="M1481.3,747.177a2.708,2.708,0,1,1-2.708-2.708A2.708,2.708,0,0,1,1481.3,747.177Z" transform="translate(-1475.882 -744.469)" fill="#ff7272"/>
                </g>
              </g>
              <g id="Group_1801" data-name="Group 1801" transform="translate(17.129)">
                <g id="Group_1800" data-name="Group 1800">
                  <path id="Path_7549" data-name="Path 7549" d="M1506.933,747.177a2.708,2.708,0,1,1-2.708-2.708A2.708,2.708,0,0,1,1506.933,747.177Z" transform="translate(-1501.517 -744.469)" fill="#ffb23d"/>
                </g>
              </g>
            </g>
            <g id="Group_1809" data-name="Group 1809" transform="translate(11.55 8.198)">
              <g id="Group_1804" data-name="Group 1804" transform="translate(23.627 0.274)">
                <g id="Group_1803" data-name="Group 1803">
                  <path id="Path_7550" data-name="Path 7550" d="M833.443,749.717H558.359c-2.776,0-4.01-1.233-4.01-2.741v-.249a2.749,2.749,0,0,1,2.741-2.741H832.174a2.749,2.749,0,0,1,2.74,2.741v.249A3.4,3.4,0,0,1,833.443,749.717Z" transform="translate(-554.349 -743.987)" fill="#cfd8dc"/>
                </g>
              </g>
              <g id="Group_1806" data-name="Group 1806">
                <g id="Group_1805" data-name="Group 1805">
                  <path id="Path_7551" data-name="Path 7551" d="M487.4,746.285v2.652a.487.487,0,0,1-.73.421l-2.3-1.326-2.3-1.326a.486.486,0,0,1,0-.843l2.3-1.326,2.3-1.326a.487.487,0,0,1,.73.421Z" transform="translate(-481.834 -743.146)" fill="#cfd8dc"/>
                </g>
              </g>
              <g id="Group_1808" data-name="Group 1808" transform="translate(9.601)">
                <g id="Group_1807" data-name="Group 1807">
                  <path id="Path_7552" data-name="Path 7552" d="M511.3,746.285v2.652a.486.486,0,0,0,.729.421l2.3-1.326,2.3-1.326a.486.486,0,0,0,0-.843l-1.027-1.326-3.566-1.326a.486.486,0,0,0-.729.421Z" transform="translate(-511.301 -743.146)" fill="#cfd8dc"/>
                </g>
              </g>
            </g>
          </g>
        </g>
      </g>
      <g id="Group_1934" data-name="Group 1934" transform="translate(229.497 330.261)">
        <g id="Group_1813" data-name="Group 1813" transform="translate(36.215 52.74)">
          <circle id="Ellipse_135" data-name="Ellipse 135" cx="137.838" cy="137.838" r="137.838" fill="#00B0DC"/>
          <circle id="Ellipse_136" data-name="Ellipse 136" cx="105.278" cy="105.278" r="105.278" transform="translate(32.56 32.56)" fill="#00B0DC"/>
          <circle id="Ellipse_137" data-name="Ellipse 137" cx="74.278" cy="74.278" r="74.278" transform="translate(32.793 137.838) rotate(-45)" fill="#00B0DC"/>
        </g>
        <g id="Group_1933" data-name="Group 1933">
          <g id="Group_1910" data-name="Group 1910" transform="translate(49.412)">
            <g id="Group_1814" data-name="Group 1814" transform="translate(10.841 145.428)">
              <path id="Path_7553" data-name="Path 7553" d="M678.474,799.117l-.3-.543,2.431-11.758-22.4-10.219-.577,1.921c-1.054,3.507-3.489,11.422-6.317,20.6Z" transform="translate(-651.319 -776.596)" fill="#ffbf9d"/>
            </g>
            <g id="Group_1815" data-name="Group 1815" transform="translate(15.481 88.762)">
              <path id="Path_7554" data-name="Path 7554" d="M711.921,650.121l-4.339-4.8V641.41a5.713,5.713,0,0,0-1.026-3.267l-1.428-2.049a5.713,5.713,0,0,0-5.592-2.374l-5.429.871-2.74.229,1.824-13.1a55.181,55.181,0,0,1,4.037-9.707c3.2-6.395-1.951-9.326-1.951-9.326l-9.62,16.835-3.2,11.191-1.37-9.135s1.624-8.879,1.4-13.447-4.821-3.911-4.821-3.911l-3.654,20.1v10.049l-3.2-5.938s-.685-5.025-1.142-9.592-4.111-3.2-4.111-3.2v12.5a16,16,0,0,0,.675,4.6l2.4,7.985a15.986,15.986,0,0,1,.482,7.071c-.817,5.209-1.3,11.563-1.3,11.563l19.848,18.023c.307.276,10.748-7.249,11.8-8.018a115.66,115.66,0,0,0,9.5-7.761c1.7-1.545,6.58-4.794,5.708-7.566C714.229,652.642,712.827,651.237,711.921,650.121ZM700.958,655.6l-1.866-.839a7.408,7.408,0,0,1-3.82-3.96l-.062-.152a7.408,7.408,0,0,1,.37-6.364l.16-.29.651-1.184.837-.584,3.046.584s1.37,4.339,1.142,6.395,2.512,4.111,2.512,4.111Z" transform="translate(-665.558 -602.682)" fill="#ffbf9d"/>
            </g>
            <g id="Group_1816" data-name="Group 1816" transform="translate(34.222 140.022)">
              <path id="Path_7555" data-name="Path 7555" d="M908.7,807.064v11.287H723.076V807.064s47.457-43.53,73.276-46.86a24.065,24.065,0,0,1,3.03-.2h25.509a25.338,25.338,0,0,1,3.03.192C855.108,763.443,908.7,807.064,908.7,807.064Z" transform="translate(-723.076 -760.005)" fill="#352e3e"/>
            </g>
            <g id="Group_1817" data-name="Group 1817" transform="translate(107.497 140.022)">
              <path id="Path_7556" data-name="Path 7556" d="M979.537,760.2V803.21H947.968V760.2a24.068,24.068,0,0,1,3.03-.2h25.509A25.335,25.335,0,0,1,979.537,760.2Z" transform="translate(-947.968 -760.005)" fill="#86ddad"/>
            </g>
            <g id="Group_1818" data-name="Group 1818" transform="translate(52.132 85.436)">
              <path id="Path_7557" data-name="Path 7557" d="M779.228,593.12,778.047,607.5a.7.7,0,0,0,.879.738l9.477-2.474a.7.7,0,0,0,.4-1.083l-8.3-11.9A.7.7,0,0,0,779.228,593.12Z" transform="translate(-778.045 -592.473)" fill="#2f3037"/>
            </g>
            <g id="Group_1842" data-name="Group 1842" transform="translate(0 166.824)">
              <g id="Group_1819" data-name="Group 1819" transform="translate(0 0)">
                <path id="Path_7558" data-name="Path 7558" d="M856.343,842.262,840.315,1029.7H634.073L618.046,842.262Z" transform="translate(-618.046 -842.262)" fill="#fff"/>
                <path id="Path_7559" data-name="Path 7559" d="M844.619,842.262,634.073,1029.7,618.046,842.262Z" transform="translate(-618.046 -842.262)" fill="#fafafa"/>
              </g>
              <g id="Group_1820" data-name="Group 1820" transform="translate(3.015 2.769)">
                <path id="Path_7560" data-name="Path 7560" d="M844.011,1032.664H642.853l-.038-.447L627.3,850.759H859.564l-.045.531Zm-200.26-.978H843.113L858.5,851.736H628.365Z" transform="translate(-627.3 -850.759)" fill="#352d42"/>
              </g>
              <g id="Group_1837" data-name="Group 1837" transform="translate(59.728 101.205)">
                <g id="Group_1824" data-name="Group 1824">
                  <g id="Group_1822" data-name="Group 1822">
                    <rect id="Rectangle_1339" data-name="Rectangle 1339" width="118.84" height="0.977" fill="#352d42"/>
                  </g>
                  <g id="Group_1823" data-name="Group 1823" transform="translate(24.037 10.092)">
                    <rect id="Rectangle_1340" data-name="Rectangle 1340" width="70.766" height="0.977" fill="#352d42"/>
                  </g>
                </g>
                <g id="Group_1827" data-name="Group 1827" transform="translate(0 40.369)">
                  <g id="Group_1825" data-name="Group 1825" transform="translate(0 10.092)">
                    <rect id="Rectangle_1341" data-name="Rectangle 1341" width="118.84" height="0.977" fill="#352d42"/>
                  </g>
                  <g id="Group_1826" data-name="Group 1826" transform="translate(24.036)">
                    <rect id="Rectangle_1342" data-name="Rectangle 1342" width="70.766" height="0.977" fill="#352d42"/>
                  </g>
                </g>
                <g id="Group_1836" data-name="Group 1836" transform="translate(15.148 15.604)">
                  <g id="Group_1828" data-name="Group 1828" transform="translate(34.447)">
                    <path id="Path_7571" data-name="Path 7571" d="M957.285,1219.431l1.182-6.757-4.9-4.8,6.792-.964,3.057-6.141,3.016,6.162,6.785,1.009-4.928,4.772,1.137,6.765-6.061-3.213Z" transform="translate(-953.571 -1200.764)" fill="#fed68b"/>
                  </g>
                  <g id="Group_1835" data-name="Group 1835" transform="translate(0 2.114)">
                    <g id="Group_1831" data-name="Group 1831" transform="translate(58.476)">
                      <g id="Group_1829" data-name="Group 1829">
                        <path id="Path_7572" data-name="Path 7572" d="M1030.251,1221.984l.933-5.333-3.864-3.792,5.36-.761,2.412-4.847,2.38,4.863,5.355.8-3.889,3.766.9,5.339-4.784-2.535Z" transform="translate(-1027.319 -1207.251)" fill="#fed68b"/>
                      </g>
                      <g id="Group_1830" data-name="Group 1830" transform="translate(18.624 2.075)">
                        <path id="Path_7573" data-name="Path 7573" d="M1086.643,1224.489l.688-3.935-2.851-2.8,3.955-.561,1.78-3.576,1.756,3.588,3.951.588-2.87,2.779.662,3.939-3.53-1.871Z" transform="translate(-1084.48 -1213.619)" fill="#fed68b"/>
                      </g>
                    </g>
                    <g id="Group_1834" data-name="Group 1834">
                      <g id="Group_1832" data-name="Group 1832" transform="translate(14.559)">
                        <path id="Path_7574" data-name="Path 7574" d="M905.109,1221.984l-.933-5.333,3.864-3.792-5.36-.761-2.412-4.847-2.38,4.863-5.355.8,3.89,3.766-.9,5.339,4.784-2.535Z" transform="translate(-892.533 -1207.251)" fill="#fed68b"/>
                      </g>
                      <g id="Group_1833" data-name="Group 1833" transform="translate(0 2.075)">
                        <path id="Path_7575" data-name="Path 7575" d="M857.129,1224.489l-.688-3.935,2.851-2.8-3.955-.561-1.78-3.576-1.756,3.588-3.951.588,2.87,2.779-.662,3.939,3.53-1.871Z" transform="translate(-847.849 -1213.619)" fill="#fed68b"/>
                      </g>
                    </g>
                  </g>
                </g>
              </g>
              <g id="Group_1841" data-name="Group 1841" transform="translate(101.066 78.301)">
                <g id="Group_1838" data-name="Group 1838">
                  <rect id="Rectangle_1343" data-name="Rectangle 1343" width="7.754" height="11.498" rx="3.447" fill="#84e4b5"/>
                </g>
                <g id="Group_1839" data-name="Group 1839" transform="translate(14.205)">
                  <rect id="Rectangle_1344" data-name="Rectangle 1344" width="7.754" height="11.498" rx="3.447" fill="#352e3e"/>
                </g>
                <g id="Group_1840" data-name="Group 1840" transform="translate(28.409)">
                  <rect id="Rectangle_1345" data-name="Rectangle 1345" width="7.754" height="11.498" rx="3.447" fill="#fed68b"/>
                </g>
              </g>
              <text id="Certification" transform="translate(48.096 51.917)" fill="#352d42" font-size="25" font-family="MVBoli, MV Boli"><tspan x="0" y="0">Certification</tspan></text>
            </g>
            <g id="Group_1846" data-name="Group 1846" transform="translate(200.411 237.665)">
              <g id="Group_1845" data-name="Group 1845">
                <g id="Group_1844" data-name="Group 1844">
                  <g id="Group_1843" data-name="Group 1843">
                    <path id="Path_7576" data-name="Path 7576" d="M1281.206,1085.8l-3.017,7.025a11.749,11.749,0,0,1-8.52,6.885,10.98,10.98,0,0,1-2.877.137c-3.323-.254-6.526-1.812-9.621-2.942-5.015-1.835-8.69-3.4-11.016-4.464-2-.922-5.806-.655-8.787-.7-2-.033-3.633-.2-4.079-.961-.414-.7.026-1.59.867-2.454a13.067,13.067,0,0,1,5.578-3.216c.883-.176,1.919-.309,2.874-.411.081-.01.173-.016.257-.026,0,0,.013,0,.02,0,1.515-.157,2.766-.225,2.766-.225a3.7,3.7,0,0,0-1.443-.945c-.111-.036-.228-.072-.345-.108a14.86,14.86,0,0,0-3.412-.316,25.691,25.691,0,0,1-4.242-.378c-4.386-.83-2.857-5.783-.971-5.9,1.088-.065,2.193-.108,3.177-.15.544-.02,1.049-.039,1.492-.068a23.394,23.394,0,0,1,6.715,1.206c-2.844-2.209-4.917-2.522-8.83-4.353-4.092-1.912,1.31-6.318,2.773-6.168,3.421.342,8,2.571,8.139,2.639a32.5,32.5,0,0,0-8.1-4.607c-3.965-1.616-5.229-5.93-2.538-5.6s7.953-.247,12.5,1.975a28.8,28.8,0,0,1,6.631,4.509l6.416,3.317,1.368-8.794s1.86.59,1.86.593c3.809,1.209,6.748,4.151,9.185,7.305.694.9,1.349,1.818,1.968,2.717.371.531.733,1.088,1.081,1.662C1281.4,1076.819,1283.06,1081.475,1281.206,1085.8Z" transform="translate(-1233.129 -1059.682)" fill="#fdb486"/>
                  </g>
                </g>
              </g>
            </g>
            <g id="Group_1847" data-name="Group 1847" transform="translate(234.073 246.588)">
              <path id="Path_7577" data-name="Path 7577" d="M1350.857,1104.262l-3.017,7.025a11.749,11.749,0,0,1-8.521,6.885,10.978,10.978,0,0,1-2.877.137c3.588-6.832,8.735-18.608,9.231-31.24.694.9,1.349,1.818,1.969,2.717.371.531.733,1.088,1.081,1.662C1351.05,1095.282,1352.711,1099.938,1350.857,1104.262Z" transform="translate(-1336.443 -1087.068)" fill="#e39468"/>
            </g>
            <g id="Group_1848" data-name="Group 1848" transform="translate(26.825 133.645)">
              <path id="Path_7578" data-name="Path 7578" d="M713.175,752.7a.488.488,0,0,1-.469-.351A15.612,15.612,0,0,0,700.769,741.4a.489.489,0,1,1,.193-.958,16.589,16.589,0,0,1,12.683,11.636.488.488,0,0,1-.469.626Z" transform="translate(-700.376 -740.432)" fill="#e39468"/>
            </g>
            <g id="Group_1849" data-name="Group 1849" transform="translate(24.948 125.697)">
              <path id="Path_7579" data-name="Path 7579" d="M695.1,718.8a.489.489,0,0,1-.3-.876,9.052,9.052,0,0,1,9.379-1.033.488.488,0,1,1-.411.886,8.076,8.076,0,0,0-8.37.921A.486.486,0,0,1,695.1,718.8Z" transform="translate(-694.613 -716.04)" fill="#e39468"/>
            </g>
            <g id="Group_1850" data-name="Group 1850" transform="translate(42.022 123.365)">
              <path id="Path_7580" data-name="Path 7580" d="M752.1,714.282a.525.525,0,0,1-.106-.011,6.607,6.607,0,0,1-4.961-4.772.489.489,0,1,1,.944-.252,5.683,5.683,0,0,0,1.651,2.732,5.626,5.626,0,0,0,2.577,1.338.489.489,0,0,1-.105.966Z" transform="translate(-747.017 -708.882)" fill="#e39468"/>
            </g>
            <g id="Group_1851" data-name="Group 1851" transform="translate(51.063 135.781)">
              <path id="Path_7581" data-name="Path 7581" d="M779.849,752.387a.5.5,0,0,1-.106-.011,6.6,6.6,0,0,1-4.961-4.772.489.489,0,0,1,.945-.252,5.685,5.685,0,0,0,1.651,2.732,5.628,5.628,0,0,0,2.577,1.337.489.489,0,0,1-.105.966Z" transform="translate(-774.765 -746.988)" fill="#e39468"/>
            </g>
            <g id="Group_1852" data-name="Group 1852" transform="translate(50.053 125.576)">
              <path id="Path_7582" data-name="Path 7582" d="M775,727.833a2.341,2.341,0,0,1-1.315-.375c-1.328-.872-1.365-2.938-1.364-3.214l-.654-7.924a.489.489,0,1,1,.974-.08l.656,7.947a.487.487,0,0,1,0,.05,3.139,3.139,0,0,0,.925,2.406,2.342,2.342,0,0,0,2.238-.17c3.566-1.633,2.257-10.152,2.243-10.237a.489.489,0,1,1,.965-.153c.06.38,1.432,9.341-2.8,11.28A4.554,4.554,0,0,1,775,727.833Z" transform="translate(-771.664 -715.668)" fill="#e39468"/>
            </g>
            <g id="Group_1853" data-name="Group 1853" transform="translate(58.933 136.083)">
              <path id="Path_7583" data-name="Path 7583" d="M799.406,753.844h-.023a.488.488,0,0,1-.465-.511l.232-4.95a.489.489,0,1,1,.976.046l-.232,4.95A.489.489,0,0,1,799.406,753.844Z" transform="translate(-798.917 -747.917)" fill="#e39468"/>
            </g>
            <g id="Group_1854" data-name="Group 1854" transform="translate(49.131 139.292)">
              <path id="Path_7584" data-name="Path 7584" d="M772.616,767.086a.485.485,0,0,1-.3-.107l-2.288-1.823a3.158,3.158,0,0,1-.09-4.865l2.8-2.409a.489.489,0,1,1,.637.741l-2.8,2.409a2.18,2.18,0,0,0,.062,3.359l2.288,1.823a.489.489,0,0,1-.3.871Z" transform="translate(-768.834 -757.765)" fill="#e39468"/>
            </g>
            <g id="Group_1908" data-name="Group 1908" transform="translate(52.913)">
              <g id="Group_1862" data-name="Group 1862">
                <g id="Group_1856" data-name="Group 1856" transform="translate(0 40.725)">
                  <g id="Group_1855" data-name="Group 1855">
                    <path id="Path_7585" data-name="Path 7585" d="M780.512,500.923a10.318,10.318,0,0,0,.562,2.393.331.331,0,0,0,.31.218.3.3,0,0,0,.113-.02.326.326,0,0,0,.2-.423,9.61,9.61,0,0,1-.516-2.149,10.636,10.636,0,0,1,3.729-9.467,21.379,21.379,0,0,1,4.839-2.658,19.012,19.012,0,0,0,5.533-3.239c3.444-3.233,3.828-8.284,3.755-11.007a53.918,53.918,0,0,0-.72-6.492c-.258-1.686-.522-3.431-.648-5.15a7.186,7.186,0,0,1,.39-3.5,5.26,5.26,0,0,1,1.8-2.036,8.389,8.389,0,0,1,8.158-.767h.006l.727-.377a9.05,9.05,0,0,0-9.275.608,5.9,5.9,0,0,0-2.016,2.294,7.794,7.794,0,0,0-.45,3.827c.126,1.745.4,3.5.655,5.2a54.291,54.291,0,0,1,.714,6.406c.073,2.618-.291,7.457-3.543,10.511a18.544,18.544,0,0,1-5.348,3.114,22.181,22.181,0,0,0-4.991,2.757A11.319,11.319,0,0,0,780.512,500.923Z" transform="translate(-780.441 -455.251)" fill="#2f3037"/>
                  </g>
                </g>
                <g id="Group_1861" data-name="Group 1861" transform="translate(8.268)">
                  <g id="Group_1858" data-name="Group 1858">
                    <g id="Group_1857" data-name="Group 1857">
                      <path id="Path_7586" data-name="Path 7586" d="M929.126,374.546l-23.755,16.223-36.166,24.7a2.045,2.045,0,0,1-2.3.008l-37.114-25-23.066-15.538a2.047,2.047,0,0,1-.012-3.392l59.92-40.931a2.051,2.051,0,0,1,2.3-.008L899.5,351.2l29.612,19.947A2.054,2.054,0,0,1,929.126,374.546Z" transform="translate(-805.818 -330.261)" fill="#352e3e"/>
                    </g>
                  </g>
                  <g id="Group_1860" data-name="Group 1860" transform="translate(17.812 10.027)">
                    <g id="Group_1859" data-name="Group 1859">
                      <path id="Path_7587" data-name="Path 7587" d="M904.852,426.551a8.4,8.4,0,0,0,4.761-1.471l35.769-24.433a8.441,8.441,0,0,0-.045-13.971l-35.927-24.2a8.44,8.44,0,0,0-9.477.031l-35.769,24.433a8.441,8.441,0,0,0,.045,13.971l35.927,24.2A8.41,8.41,0,0,0,904.852,426.551Z" transform="translate(-860.484 -361.034)" fill="#27222e"/>
                    </g>
                  </g>
                </g>
              </g>
              <g id="Group_1865" data-name="Group 1865" transform="translate(54.948 118.782)">
                <g id="Group_1863" data-name="Group 1863">
                  <path id="Path_7588" data-name="Path 7588" d="M978.827,694.818v20.805c0,8.214-6.658,9.9-14.872,9.9s-14.872-1.684-14.872-9.9V694.818Z" transform="translate(-949.084 -694.818)" fill="#fdb486"/>
                </g>
                <g id="Group_1864" data-name="Group 1864">
                  <path id="Path_7589" data-name="Path 7589" d="M978.827,694.818V703.5c-10.321,4.008-21.835,8.487-29.743,11.579V694.818Z" transform="translate(-949.084 -694.818)" fill="#e39468"/>
                </g>
              </g>
              <g id="Group_1867" data-name="Group 1867" transform="translate(30.6 87.123)">
                <g id="Group_1866" data-name="Group 1866">
                  <path id="Path_7590" data-name="Path 7590" d="M883.361,600.517s-3.061-4.425-6.693-2.279-2.477,10.072,0,14.034,6.474,5.921,8.686,2.878Z" transform="translate(-874.356 -597.65)" fill="#ef9c70"/>
                </g>
              </g>
              <g id="Group_1868" data-name="Group 1868" transform="translate(39.335 53.061)">
                <path id="Path_7591" data-name="Path 7591" d="M931.294,574.183c-26.6,0-29.825-33.628-30.1-46.184-.067-2.881.025-4.654.025-4.654s-1.58-30.235,31.184-30.235c17.382,0,24.033,9.822,26.54,18.268a36.119,36.119,0,0,1,1.423,11.967S964,574.183,931.294,574.183Z" transform="translate(-901.166 -493.11)" fill="#fdb486"/>
              </g>
              <g id="Group_1869" data-name="Group 1869" transform="translate(39.335 53.061)">
                <path id="Path_7592" data-name="Path 7592" d="M958.94,511.378c-6.469,1.6-12.828-6.109-13.038-6.364.1.19,2.262,4.3-5.937,5.755-12.3,2.177-18.156-10.8-28.24-7.475-6.189,2.04-9.163,14.935-10.534,24.7-.067-2.881.025-4.654.025-4.654s-1.58-30.235,31.184-30.235C949.782,493.11,956.433,502.932,958.94,511.378Z" transform="translate(-901.166 -493.11)" fill="#e39468"/>
              </g>
              <g id="Group_1871" data-name="Group 1871" transform="translate(96.53 87.847)">
                <g id="Group_1870" data-name="Group 1870">
                  <path id="Path_7593" data-name="Path 7593" d="M1078.7,602.74s3.062-4.425,6.694-2.279,2.476,10.071,0,14.034-6.474,5.921-8.685,2.878Z" transform="translate(-1076.704 -599.873)" fill="#ef9c70"/>
                </g>
              </g>
              <g id="Group_1872" data-name="Group 1872" transform="translate(32.903 35.734)">
                <path id="Path_7594" data-name="Path 7594" d="M950.3,484.888a113.648,113.648,0,0,1-3.56,13.49l-2.6-25.019c-2.527,1.356-12.066-5.651-12.339-5.853.059.18,1.65,5.072-5.294,5.332-8.968.34-11.785-2.49-18.192-6.785-8.5-5.693-14.367,2.532-15.836,4.946a17.11,17.11,0,0,0-2.28,6.411l-2.032,19.8c-.609-2.347-1.969-5.093-2.544-7.54-1.407-4.144-4.627-14.72-4.148-23.427a20.951,20.951,0,0,1,1.117-6.012,12.841,12.841,0,0,1,.5-1.209c4.942-10.354,15.1-6.877,15.812-6.621.021,0,.042-.013.063-.017.2-.374,6.789-12.18,25.17-12.453,9.09-.134,20.64,3.4,26.165,13.527a25.575,25.575,0,0,1,2.687,7.729C954.135,467.393,953.535,475.19,950.3,484.888Z" transform="translate(-881.424 -439.932)" fill="#582938"/>
              </g>
              <g id="Group_1873" data-name="Group 1873" transform="translate(32.951 35.734)">
                <path id="Path_7595" data-name="Path 7595" d="M953.084,461.192c-35.284-10.454-61.369-.353-71.512,5.055a20.951,20.951,0,0,1,1.117-6.012,12.808,12.808,0,0,1,.5-1.209c4.941-10.354,15.1-6.877,15.811-6.621.021,0,.042-.013.063-.017.2-.374,6.789-12.18,25.17-12.453,9.09-.134,20.64,3.4,26.165,13.527A25.575,25.575,0,0,1,953.084,461.192Z" transform="translate(-881.572 -439.932)" fill="#3b1b25"/>
              </g>
              <g id="Group_1875" data-name="Group 1875" transform="translate(66.891 90.371)">
                <g id="Group_1874" data-name="Group 1874">
                  <path id="Path_7596" data-name="Path 7596" d="M989.873,607.62l1.371,15.151S979.829,620.994,989.873,607.62Z" transform="translate(-985.738 -607.62)" fill="#e39468"/>
                </g>
              </g>
              <g id="Group_1882" data-name="Group 1882" transform="translate(49.074 76.643)">
                <g id="Group_1878" data-name="Group 1878" transform="translate(5.915 8.799)">
                  <g id="Group_1876" data-name="Group 1876" transform="translate(0 0)">
                    <circle id="Ellipse_138" data-name="Ellipse 138" cx="2.185" cy="2.185" r="2.185" transform="translate(0 3.5) rotate(-53.217)" fill="#37141e"/>
                  </g>
                  <g id="Group_1877" data-name="Group 1877" transform="translate(25.983 1.523)">
                    <path id="Path_7597" data-name="Path 7597" d="M1033.321,599.408a2.185,2.185,0,1,1-2.128-2.241A2.185,2.185,0,0,1,1033.321,599.408Z" transform="translate(-1028.951 -597.166)" fill="#37141e"/>
                  </g>
                </g>
                <g id="Group_1881" data-name="Group 1881">
                  <g id="Group_1879" data-name="Group 1879" transform="translate(26.644 0.556)">
                    <path id="Path_7598" data-name="Path 7598" d="M1012.829,569.514l16.257,4.651s-.625-4.61-7.278-6.451S1012.829,569.514,1012.829,569.514Z" transform="translate(-1012.829 -567.194)" fill="#37141e"/>
                  </g>
                  <g id="Group_1880" data-name="Group 1880">
                    <path id="Path_7599" data-name="Path 7599" d="M947.529,568.1l-16.475,3.8s.862-4.571,7.6-6.066S947.529,568.1,947.529,568.1Z" transform="translate(-931.054 -565.487)" fill="#37141e"/>
                  </g>
                </g>
              </g>
              <g id="Group_1887" data-name="Group 1887" transform="translate(49.489 101.221)">
                <g id="Group_1884" data-name="Group 1884" transform="translate(30.605)">
                  <g id="Group_1883" data-name="Group 1883">
                    <path id="Path_7600" data-name="Path 7600" d="M1032.235,645.526c3.29-.026,5.949-1.077,5.939-2.349s-2.685-2.283-5.975-2.257-5.949,1.077-5.939,2.349S1028.945,645.551,1032.235,645.526Z" transform="translate(-1026.26 -640.92)" fill="#f09882"/>
                  </g>
                </g>
                <g id="Group_1886" data-name="Group 1886" transform="translate(0 0.835)">
                  <g id="Group_1885" data-name="Group 1885">
                    <path id="Path_7601" data-name="Path 7601" d="M937.156,647.2c2.658-.021,4.806-.87,4.8-1.9s-2.169-1.844-4.827-1.823-4.806.87-4.8,1.9S934.5,647.224,937.156,647.2Z" transform="translate(-932.329 -643.482)" fill="#f09882"/>
                  </g>
                </g>
              </g>
              <g id="Group_1894" data-name="Group 1894" transform="translate(61.76 108.493)">
                <g id="Group_1889" data-name="Group 1889">
                  <g id="Group_1888" data-name="Group 1888">
                    <path id="Path_7602" data-name="Path 7602" d="M974.735,671.684a11.377,11.377,0,0,0,9.682-.35,8.567,8.567,0,0,0,3.961-6.112,1.656,1.656,0,0,0-1.564-1.983h-.258l-14.714.063h-.3a1.628,1.628,0,0,0-1.5,2.058A9.192,9.192,0,0,0,974.735,671.684Z" transform="translate(-969.989 -663.239)" fill="#3f2645"/>
                  </g>
                </g>
                <g id="Group_1891" data-name="Group 1891" transform="translate(1.853 0.001)">
                  <g id="Group_1890" data-name="Group 1890">
                    <path id="Path_7603" data-name="Path 7603" d="M979.33,666.276l7.175.212a3.91,3.91,0,0,0,3.885-3.246l-14.714.063A3.981,3.981,0,0,0,979.33,666.276Z" transform="translate(-975.676 -663.242)" fill="#fff"/>
                  </g>
                </g>
                <g id="Group_1893" data-name="Group 1893" transform="translate(4.747 5.94)">
                  <g id="Group_1892" data-name="Group 1892">
                    <path id="Path_7604" data-name="Path 7604" d="M984.557,683.976a11.377,11.377,0,0,0,9.682-.35,6.029,6.029,0,0,0-4.787-2.154A5.879,5.879,0,0,0,984.557,683.976Z" transform="translate(-984.557 -681.471)" fill="#ff63ae"/>
                  </g>
                </g>
              </g>
              <g id="Group_1903" data-name="Group 1903" transform="translate(31.418 27.299)">
                <g id="Group_1900" data-name="Group 1900">
                  <g id="Group_1896" data-name="Group 1896">
                    <g id="Group_1895" data-name="Group 1895">
                      <path id="Path_7605" data-name="Path 7605" d="M876.866,433.684l.824,13.282s.767-.422,2.188-1.09a0,0,0,0,0,0,0c8.452-3.987,39.965-16.745,70.14-1.729l.043-1.139.587-15.538S906.9,393.473,876.866,433.684Z" transform="translate(-876.866 -414.045)" fill="#232537"/>
                    </g>
                  </g>
                  <g id="Group_1899" data-name="Group 1899" transform="translate(0.13 2.347)">
                    <g id="Group_1898" data-name="Group 1898">
                      <g id="Group_1897" data-name="Group 1897">
                        <path id="Path_7606" data-name="Path 7606" d="M950.289,449c-30.176-15.016-61.689-2.258-70.14,1.729a0,0,0,0,1,0,0c-1.421.667-2.188,1.09-2.188,1.09l-.694-11.192c29.638-39.29,72.457-6.831,73.567-5.979l-.5,13.211Z" transform="translate(-877.264 -421.249)" fill="#352e3e"/>
                      </g>
                    </g>
                  </g>
                </g>
                <g id="Group_1902" data-name="Group 1902" transform="translate(3.015 20.588)">
                  <g id="Group_1901" data-name="Group 1901">
                    <path id="Path_7607" data-name="Path 7607" d="M886.118,488.474c8.452-3.987,39.965-16.745,70.14-1.729l.043-1.139c-5.344-3.522-14.018-7.807-28.252-8.307C904.725,476.478,891.437,483.556,886.118,488.474Z" transform="translate(-886.118 -477.233)" fill="#27222e"/>
                  </g>
                </g>
              </g>
              <g id="Group_1905" data-name="Group 1905" transform="translate(18.897 0)" opacity="0.15" style="mix-blend-mode: multiply;isolation: isolate">
                <g id="Group_1904" data-name="Group 1904">
                  <path id="Path_7608" data-name="Path 7608" d="M838.438,364.9l50.184-34.28a2.051,2.051,0,0,1,2.3-.008l24.3,16.367a163.155,163.155,0,0,1-34.861,23.146c-6.461,3.208-13.632,6.15-21.217,5.95a127.74,127.74,0,0,0,23.348-26.8c1.3-2.021,2.558-4.339,1.624-6.456C870.819,352.392,855.538,360.752,838.438,364.9Z" transform="translate(-838.438 -330.262)" fill="#2f3037"/>
                </g>
              </g>
              <g id="Group_1907" data-name="Group 1907" transform="translate(86.55 20.942)" opacity="0.15" style="mix-blend-mode: multiply;isolation: isolate">
                <g id="Group_1906" data-name="Group 1906">
                  <path id="Path_7609" data-name="Path 7609" d="M1091.088,414.481l-29.612-19.947a19.5,19.5,0,0,1-.856,4.316,50.749,50.749,0,0,1-5.572,11.886,95.309,95.309,0,0,1-8.975,11.922,48.5,48.5,0,0,1,18.065,7.194l2.778,4.042c.164.081.31.152.429.206l23.755-16.223A2.054,2.054,0,0,0,1091.088,414.481Z" transform="translate(-1046.073 -394.534)" fill="#2f3037"/>
                </g>
              </g>
            </g>
            <g id="Group_1909" data-name="Group 1909" transform="translate(102.32 136.556)">
              <path id="Path_7610" data-name="Path 7610" d="M973.433,805.02a13.118,13.118,0,0,0-1.757-1.99c-.182-.18-.365-.36-.544-.543a19.9,19.9,0,0,1-5.507-12.861l.022-1.049c.573,3.351,1.438,6.521,3.762,9.4a2.14,2.14,0,0,0,1.422.927c.043,0,.086.006.129.006a1.12,1.12,0,0,0,.965-.513c1.265-1.938-2.9-10.369-2.943-10.45l-2.665-4.785a1.053,1.053,0,0,0-1.479,0l-2.666,4.785c-.2.366-.427.748-.659,1.145-1.479,2.527-3.318,5.673-2.484,8.69a1.7,1.7,0,0,0,1.5,1.42,1.25,1.25,0,0,0,.141-.008,1.66,1.66,0,0,0,.99-.558,12.239,12.239,0,0,0,2.584-4.686c-.078,3.566-.328,6.956-2.317,9.323a14.681,14.681,0,0,1-2.249,2.022c-.314.246-.629.493-.935.747a21.427,21.427,0,0,0-7.405,13.164.643.643,0,0,0,.542.73.59.59,0,0,0,.1.007.644.644,0,0,0,.635-.548,20.122,20.122,0,0,1,6.954-12.365c.3-.247.6-.485.906-.724a15.855,15.855,0,0,0,2.44-2.207c1.931-2.3,2.412-5.288,2.563-8.487a20.811,20.811,0,0,0,4.732,7.774c.184.189.372.375.561.561a11.888,11.888,0,0,1,1.591,1.79,5.757,5.757,0,0,1-.428,6.786.643.643,0,0,0,.971.844A7.082,7.082,0,0,0,973.433,805.02Zm-5.573-16.45c.884,1.589,3.4,7.825,3.026,9.033a1.59,1.59,0,0,1-.475-.439c-2.586-3.2-3.239-6.922-3.818-10.869Zm-7.118,9.167c-.146.151-.2.174-.195.179a.862.862,0,0,1-.277-.479c-.691-2.494,1-5.379,2.354-7.7.237-.4.465-.795.673-1.168l1.106-1.986-.007.354c-.026.3-.052.6-.066.9C963.742,791.5,962.821,795.6,960.742,797.737Z" transform="translate(-945.06 -771.927)" fill="#fc5b91"/>
              <path id="Path_7611" data-name="Path 7611" d="M936.775,761.879l-4.7,2.492,15.58,10.857Z" transform="translate(-932.077 -757.803)" fill="#424242" opacity="0.3" style="mix-blend-mode: multiply;isolation: isolate"/>
              <path id="Path_7612" data-name="Path 7612" d="M1017.873,756.915l4.672,4.389-15.35,10.337Z" transform="translate(-982.72 -754.456)" fill="#424242" opacity="0.3" style="mix-blend-mode: multiply;isolation: isolate"/>
              <path id="Path_7613" data-name="Path 7613" d="M939.778,749.368l15.065,10.66-2.865,6.088a1.323,1.323,0,0,1-2.081.489l-14.066-12.1Z" transform="translate(-934.608 -749.368)" fill="#fff"/>
              <path id="Path_7614" data-name="Path 7614" d="M1009.494,749.368s-15.312,10.66-15.312,10.66l2.763,5.75a1.322,1.322,0,0,0,2.06.5l14.189-11.767Z" transform="translate(-973.947 -749.368)" fill="#fff"/>
            </g>
          </g>
          <g id="Group_1932" data-name="Group 1932" transform="translate(0 270.345)">
            <g id="Group_1918" data-name="Group 1918" transform="translate(0 0.567)">
              <g id="Group_1917" data-name="Group 1917" transform="translate(0.001 0.002)">
                <g id="Group_1912" data-name="Group 1912" transform="translate(4.437 2.564)">
                  <g id="Group_1911" data-name="Group 1911">
                    <rect id="Rectangle_1346" data-name="Rectangle 1346" width="84.738" height="72.363" rx="36.182" fill="#251f2e"/>
                  </g>
                </g>
                <g id="Group_1916" data-name="Group 1916">
                  <g id="Group_1914" data-name="Group 1914">
                    <g id="Group_1913" data-name="Group 1913">
                      <rect id="Rectangle_1347" data-name="Rectangle 1347" width="84.738" height="72.363" rx="36.182" fill="#ffaa3c"/>
                    </g>
                  </g>
                  <g id="Group_1915" data-name="Group 1915" transform="translate(22.236 15.292)">
                    <path id="Path_7615" data-name="Path 7615" d="M535.943,1254.116l.581,2.3h36.634l.649-2.278s1.227-.577,1.13-1.365-.7-1.027-1.445-1.027q-18.644.008-37.288,0c-.781,0-1.409.239-1.473,1.093C534.671,1253.632,535.943,1254.116,535.943,1254.116Z" transform="translate(-534.702 -1237.708)" fill="#fafafa"/>
                    <path id="Path_7616" data-name="Path 7616" d="M593.834,1312.336a1.127,1.127,0,0,0-1.191,1.2c-.041,1.73-.013,3.461-.013,5.259h2.335c0-1.835.027-3.624-.014-5.411A1.021,1.021,0,0,0,593.834,1312.336Z" transform="translate(-573.731 -1278.556)" fill="#fafafa"/>
                    <path id="Path_7617" data-name="Path 7617" d="M635.322,1274.427c0-.289-.028-.579-.045-.9h-11.02v19.156c3.151,0,6.231,0,9.31,0,1.4,0,1.756-.348,1.756-1.733Q635.326,1282.687,635.322,1274.427Zm-4.723,12.029c-.05.724-.407,1.212-1.158,1.228a1.094,1.094,0,0,1-1.18-1.187c-.025-.477-.02-.958,0-1.435.025-.73.37-1.22,1.137-1.226a1.131,1.131,0,0,1,1.2,1.185c.024.267,0,.538,0,.808h0C630.6,1286.036,630.614,1286.247,630.6,1286.456Zm0-6.279a1.136,1.136,0,0,1-1.167,1.219c-.769.016-1.119-.47-1.164-1.2-.017-.268,0-.538,0-.807h0c0-.24-.017-.48,0-.718a1.082,1.082,0,0,1,1.14-1.131,1.112,1.112,0,0,1,1.177,1.11A9.188,9.188,0,0,1,630.6,1280.176Z" transform="translate(-595.059 -1252.391)" fill="#fafafa"/>
                    <path id="Path_7618" data-name="Path 7618" d="M534.648,1274.53q0,6.954,0,13.908c0,.987-.009,1.974,0,2.961a1.123,1.123,0,0,0,1.125,1.259c3.255.036,6.51.016,9.841.016v-19.15H534.648Zm4.455,4.15a1.1,1.1,0,0,1,1.144-1.137,1.081,1.081,0,0,1,1.175,1.1,11.907,11.907,0,0,1,.019,1.526,1.114,1.114,0,0,1-1.15,1.227c-.759.013-1.128-.464-1.189-1.189-.023-.268,0-.539,0-.808C539.1,1279.158,539.08,1278.917,539.1,1278.679Zm0,6.366a1.1,1.1,0,0,1,1.16-1.211c.758,0,1.128.466,1.181,1.2.017.238,0,.479,0,.719h-.019a6.441,6.441,0,0,1-.007.9,1.155,1.155,0,0,1-2.3.014A10.781,10.781,0,0,1,539.1,1285.045Z" transform="translate(-534.645 -1252.39)" fill="#fafafa"/>
                    <path id="Path_7619" data-name="Path 7619" d="M575.955,1292.63h3.055c.016-.338.039-.629.04-.921.005-1.467-.028-2.934.014-4.4a3.509,3.509,0,0,1,7.017-.08c.046,1.786.009,3.574.009,5.388h3.131v-19.1H575.955Zm7.924-13.163h.01a7.818,7.818,0,0,1,0-.806,1.1,1.1,0,0,1,1.162-1.115,1.083,1.083,0,0,1,1.148,1.125,11.389,11.389,0,0,1,.009,1.433c-.034.819-.485,1.308-1.171,1.3s-1.125-.5-1.16-1.314C583.872,1279.885,583.879,1279.676,583.879,1279.467Zm-3.653-1.937c.823.011,1.155.573,1.154,1.95,0,1.356-.354,1.929-1.187,1.926s-1.153-.569-1.153-1.954C579.041,1278.085,579.391,1277.518,580.226,1277.53Z" transform="translate(-562.495 -1252.389)" fill="#fafafa"/>
                    <path id="Path_7620" data-name="Path 7620" d="M579.778,1217.4v-2.917h4.594a.548.548,0,0,0,.489-.795l-.931-1.845.782-1.2a.548.548,0,0,0-.459-.846h-4.478a1.178,1.178,0,0,0-2.355.046v7.569l-7.34,2.739h17.191Z" transform="translate(-558.535 -1208.661)" fill="#fafafa"/>
                  </g>
                </g>
              </g>
              <path id="Path_7621" data-name="Path 7621" d="M527.176,1162.367c-7.7,20.446-19.243,51.425-26.8,71.721H496.59a30.194,30.194,0,0,1-30.194-30.194v-11.977a30.194,30.194,0,0,1,30.191-30.194h24.356A30.208,30.208,0,0,1,527.176,1162.367Z" transform="translate(-466.396 -1161.722)" fill="#eb9c37" opacity="0.3" style="mix-blend-mode: multiply;isolation: isolate"/>
            </g>
            <g id="Group_1925" data-name="Group 1925" transform="translate(124.166 36.522)">
              <g id="Group_1924" data-name="Group 1924">
                <g id="Group_1919" data-name="Group 1919" transform="translate(4.437 2.562)">
                  <path id="Rectangle_1348" data-name="Rectangle 1348" d="M36.749,0h15.66A36.749,36.749,0,0,1,89.158,36.749v0A36.749,36.749,0,0,1,52.409,73.5H36.749A36.749,36.749,0,0,1,0,36.749v0A36.749,36.749,0,0,1,36.749,0Z" fill="#251f2e"/>
                </g>
                <g id="Group_1922" data-name="Group 1922">
                  <g id="Group_1921" data-name="Group 1921">
                    <g id="Group_1920" data-name="Group 1920">
                      <path id="Path_7622" data-name="Path 7622" d="M936.635,1302.736V1314.9a30.667,30.667,0,0,1-30.667,30.667H878.14a30.666,30.666,0,0,1-30.663-30.667v-12.166a30.661,30.661,0,0,1,30.663-30.664h27.829a30.637,30.637,0,0,1,30.667,30.664Z" transform="translate(-847.476 -1272.072)" fill="#fd6f8d"/>
                    </g>
                  </g>
                </g>
                <g id="Group_1923" data-name="Group 1923" transform="translate(25.997 15.71)">
                  <path id="Path_7623" data-name="Path 7623" d="M937.289,1423.468l-1.507,4.256,6.774,6.775,4.282-1.46a1.4,1.4,0,0,0,.478-.281l-9.751-9.751A1.394,1.394,0,0,0,937.289,1423.468Z" transform="translate(-933.007 -1389.537)" fill="#fafafa"/>
                  <path id="Path_7624" data-name="Path 7624" d="M927.344,1451.14a1.4,1.4,0,0,0,1.769,1.79l4.752-1.62-4.86-4.86Z" transform="translate(-927.264 -1405.343)" fill="#fafafa"/>
                  <path id="Path_7625" data-name="Path 7625" d="M987.6,1326.385l-5.144-5.144a3.266,3.266,0,0,0-4.613,0l-4.17,4.169,4.073,4.073-1.981,1.981-4.073-4.073-2.984,2.983,4.073,4.073-1.978,1.978-4.075-4.075L947.3,1351.774l9.756,9.756,19.423-19.424-4.073-4.072,1.978-1.977,4.074,4.073,2.984-2.984-4.074-4.073,1.981-1.981,4.075,4.075L987.6,1331a3.262,3.262,0,0,0,0-4.613Z" transform="translate(-940.775 -1320.287)" fill="#fafafa"/>
                </g>
              </g>
              <path id="Path_7626" data-name="Path 7626" d="M911.644,1272.6c-8.279,22.045-19.165,51.236-27.252,72.972H878.14a30.666,30.666,0,0,1-30.663-30.667v-12.166a30.661,30.661,0,0,1,30.663-30.664h27.829A30.709,30.709,0,0,1,911.644,1272.6Z" transform="translate(-847.476 -1272.072)" fill="#e66580" opacity="0.3" style="mix-blend-mode: multiply;isolation: isolate"/>
            </g>
            <g id="Group_1931" data-name="Group 1931" transform="translate(248.332)">
              <g id="Group_1930" data-name="Group 1930">
                <rect id="Rectangle_1349" data-name="Rectangle 1349" width="89.158" height="73.498" rx="36.749" transform="translate(4.436 2.565)" fill="#251f2e"/>
                <g id="Group_1929" data-name="Group 1929">
                  <g id="Group_1927" data-name="Group 1927">
                    <g id="Group_1926" data-name="Group 1926">
                      <path id="Path_7627" data-name="Path 7627" d="M1317.712,1190.649v12.167a30.664,30.664,0,0,1-30.664,30.667H1259.22a30.665,30.665,0,0,1-30.664-30.667v-12.167a30.665,30.665,0,0,1,30.664-30.667h27.829c.385,0,.766.007,1.144.023A30.664,30.664,0,0,1,1317.712,1190.649Z" transform="translate(-1228.556 -1159.982)" fill="#a0cfff"/>
                    </g>
                  </g>
                  <g id="Group_1928" data-name="Group 1928" transform="translate(16.427 14.888)">
                    <path id="Path_7628" data-name="Path 7628" d="M1337.243,1217.892l-27.841-12.064a1.855,1.855,0,0,0-1.476,0l-27.841,12.064a1.858,1.858,0,0,0,0,3.406l27.841,12.064a1.852,1.852,0,0,0,1.476,0l19.679-8.527V1244.6a1.89,1.89,0,0,0,1.767,1.906,1.855,1.855,0,0,0,1.945-1.854v-20.49a.579.579,0,0,0-.505-.575l-23.861-3.079a1.856,1.856,0,0,1,.343-3.694c.083,0,26.533,3.418,26.515,3.416a1.4,1.4,0,0,1,1.1.809.586.586,0,0,0,.782.3,1.861,1.861,0,0,0,.081-3.445Z" transform="translate(-1278.971 -1205.675)" fill="#fff"/>
                    <path id="Path_7629" data-name="Path 7629" d="M1329.486,1287.075l-15.535-6.732a.58.58,0,0,0-.811.532v13.082a4.714,4.714,0,0,0,4.714,4.713h27.694a4.714,4.714,0,0,0,4.713-4.713v-13.082a.58.58,0,0,0-.811-.532l-15.537,6.732A5.559,5.559,0,0,1,1329.486,1287.075Z" transform="translate(-1302.007 -1255.981)" fill="#fff"/>
                  </g>
                </g>
              </g>
              <path id="Path_7630" data-name="Path 7630" d="M1288.192,1160c-8.051,21.413-19.048,50.9-27.454,73.477h-1.518a30.665,30.665,0,0,1-30.664-30.667v-12.167a30.665,30.665,0,0,1,30.664-30.667h27.829C1287.433,1159.982,1287.814,1159.989,1288.192,1160Z" transform="translate(-1228.556 -1159.982)" fill="#96c3f0" opacity="0.3" style="mix-blend-mode: multiply;isolation: isolate"/>
            </g>
          </g>
        </g>
      </g>
    </g>
    <g id="Group_1980" data-name="Group 1980" transform="translate(1170 371.916)">
      <path id="Path_7651" data-name="Path 7651" d="M86.52,1092.331A753.492,753.492,0,0,1,1.774,1157.19q-.594.388-1.189.772v58.619q6.822-5.159,14.478-10.755c57.048-41.655,107.356-63.648,107.356-63.648C119.649,1099.415,86.52,1092.331,86.52,1092.331Z" transform="translate(-0.585 -1092.331)" fill="#fcf4e8"/>
      <g id="Group_1959" data-name="Group 1959" transform="translate(0 60.96)">
        <path id="Path_7652" data-name="Path 7652" d="M7.5,1220.667l-6.914,4.541v6.459A75.636,75.636,0,0,1,25.4,1265.858l11.944-7.974S20.317,1229.877,7.5,1220.667Z" transform="translate(-0.585 -1220.667)" fill="#00B0DC"/>
        <g id="Group_1954" data-name="Group 1954" transform="translate(13.537 23.045)">
          <path id="Path_7653" data-name="Path 7653" d="M36.681,1299.946c-.81,9.011-3.068,18-7.6,25.835a112.733,112.733,0,0,1,14.155-2.014,1.665,1.665,0,0,0,1.053-.33,1.583,1.583,0,0,0,.352-.653c2.555-7.393,1.614-15.486.485-23.227-1.1-7.536-2.361-15.139-5.14-22.267-.322-.825-1.035-3.764-2.081-3.815-1.075-.053-1.463,1.745-1.562,2.476-.465,3.465.569,7.653.668,11.177A108.9,108.9,0,0,1,36.681,1299.946Z" transform="translate(-29.083 -1271.436)" fill="#d27d60"/>
          <path id="Path_7654" data-name="Path 7654" d="M55.947,1294.511c2.312,8.748,3.257,17.97,1.669,26.877a112.774,112.774,0,0,1,12.619-6.721,1.666,1.666,0,0,0,.877-.67,1.594,1.594,0,0,0,.109-.733c-.12-7.821-3.765-15.108-7.467-22-3.6-6.709-7.383-13.426-12.426-19.179-.584-.666-2.256-3.185-3.258-2.876-1.029.317-.781,2.14-.624,2.86.745,3.416,3.145,7,4.44,10.28A108.829,108.829,0,0,1,55.947,1294.511Z" transform="translate(-38.648 -1269.183)" fill="#d27d60"/>
        </g>
        <g id="Group_1955" data-name="Group 1955" transform="translate(13.537 23.045)">
          <path id="Path_7655" data-name="Path 7655" d="M36.681,1299.946c-.81,9.011-3.068,18-7.6,25.835a112.733,112.733,0,0,1,14.155-2.014,1.665,1.665,0,0,0,1.053-.33,1.583,1.583,0,0,0,.352-.653c2.555-7.393,1.614-15.486.485-23.227-1.1-7.536-2.361-15.139-5.14-22.267-.322-.825-1.035-3.764-2.081-3.815-1.075-.053-1.463,1.745-1.562,2.476-.465,3.465.569,7.653.668,11.177A108.9,108.9,0,0,1,36.681,1299.946Z" transform="translate(-29.083 -1271.436)" fill="#00B0DC"/>
          <path id="Path_7656" data-name="Path 7656" d="M55.947,1294.511c2.312,8.748,3.257,17.97,1.669,26.877a112.774,112.774,0,0,1,12.619-6.721,1.666,1.666,0,0,0,.877-.67,1.594,1.594,0,0,0,.109-.733c-.12-7.821-3.765-15.108-7.467-22-3.6-6.709-7.383-13.426-12.426-19.179-.584-.666-2.256-3.185-3.258-2.876-1.029.317-.781,2.14-.624,2.86.745,3.416,3.145,7,4.44,10.28A108.829,108.829,0,0,1,55.947,1294.511Z" transform="translate(-38.648 -1269.183)" fill="#00B0DC"/>
        </g>
        <g id="Group_1958" data-name="Group 1958" transform="translate(4.732 7.915)">
          <g id="Group_1956" data-name="Group 1956">
            <path id="Path_7657" data-name="Path 7657" d="M35.67,1244.215a13.409,13.409,0,1,1-18.24-5.187A13.409,13.409,0,0,1,35.67,1244.215Z" transform="translate(-10.546 -1237.331)" fill="#d27d60"/>
            <path id="Path_7658" data-name="Path 7658" d="M35.67,1244.215a13.409,13.409,0,1,1-18.24-5.187A13.409,13.409,0,0,1,35.67,1244.215Z" transform="translate(-10.546 -1237.331)" fill="#00B0DC"/>
          </g>
          <g id="Group_1957" data-name="Group 1957" transform="translate(3.171 2.576)">
            <path id="Path_7659" data-name="Path 7659" d="M23.606,1263.518a10.868,10.868,0,1,1,13.986-15.185h0a10.866,10.866,0,0,1-13.986,15.185Zm8.843-19.484A10.53,10.53,0,1,0,37.3,1248.5h0A10.477,10.477,0,0,0,32.449,1244.033Z" transform="translate(-17.222 -1242.755)" fill="#fcf4e8"/>
          </g>
        </g>
      </g>
    </g>
    <g id="Group_1981" data-name="Group 1981" transform="translate(1064.594 196.204)">
      <g id="Group_1946" data-name="Group 1946" transform="translate(41.887 78.949)">
        <ellipse id="Ellipse_140" data-name="Ellipse 140" cx="14.008" cy="7.333" rx="14.008" ry="7.333" transform="translate(0 11.454) rotate(-24.133)" fill="#fde3cf"/>
        <g id="Group_1945" data-name="Group 1945" transform="translate(4.71 0.91)">
          <path id="Path_7642" data-name="Path 7642" d="M376.742,524.937s-.239-3.4-6.681-.779S359,534.505,359,534.505l-6.431-10.595s12.6-6.925,16.573-5.875S377.064,522.6,376.742,524.937Z" transform="translate(-352.565 -517.927)" fill="#fde3cf"/>
          <path id="Path_7643" data-name="Path 7643" d="M376.742,524.937s-.239-3.4-6.681-.779S359,534.505,359,534.505l-6.431-10.595s12.6-6.925,16.573-5.875S377.064,522.6,376.742,524.937Z" transform="translate(-352.565 -517.927)" fill="#fde3cf" opacity="0.79" style="mix-blend-mode: multiply;isolation: isolate"/>
        </g>
      </g>
      <path id="Path_7644" data-name="Path 7644" d="M277.059,349.811a271.713,271.713,0,0,0,23.142,48.15c15.637,25.879,24.966,35.887,24.966,35.887S318.2,430.419,307.309,437c-6.662,4.028-7.893,9.66-7.95,9.886h0a443.045,443.045,0,0,0-20.394-45.072,322.5,322.5,0,0,0-24.5-38.554S258.721,349.4,277.059,349.811Z" transform="translate(-254.466 -349.802)" fill="#fcf4e8"/>
      <g id="Group_1952" data-name="Group 1952" transform="translate(23.051 35.184)">
        <path id="Path_7645" data-name="Path 7645" d="M305.839,446.608a31.619,31.619,0,0,1,17.092-11.233l-2.955-5.391S307.4,436.2,302.994,441.325Z" transform="translate(-302.994 -427.082)" fill="#00B0DC"/>
        <g id="Group_1947" data-name="Group 1947" transform="translate(10.43)">
          <path id="Path_7646" data-name="Path 7646" d="M337.962,441.016a26.829,26.829,0,0,1,10.734,4.2,48.275,48.275,0,0,1-.332-6.111.713.713,0,0,0-.1-.461.686.686,0,0,0-.265-.175c-3.057-1.365-6.544-1.264-9.886-1.072a43.223,43.223,0,0,0-9.687,1.362c-.364.106-1.643.3-1.7.745s.69.689,1,.758a32,32,0,0,0,4.791.132A46.6,46.6,0,0,1,337.962,441.016Z" transform="translate(-325.878 -430.917)" fill="#d27d60"/>
          <path id="Path_7647" data-name="Path 7647" d="M336.04,429.719a26.827,26.827,0,0,1,11.523.289,48.328,48.328,0,0,1-2.4-5.631.709.709,0,0,0-.253-.4.686.686,0,0,0-.309-.074c-3.34-.24-6.583,1.043-9.659,2.365a43.226,43.226,0,0,0-8.641,4.585c-.305.224-1.442.843-1.348,1.282s.883.413,1.2.373A32.024,32.024,0,0,0,330.7,431,46.572,46.572,0,0,1,336.04,429.719Z" transform="translate(-324.952 -423.875)" fill="#d27d60"/>
        </g>
        <g id="Group_1948" data-name="Group 1948" transform="translate(10.43)">
          <path id="Path_7648" data-name="Path 7648" d="M337.962,441.016a26.829,26.829,0,0,1,10.734,4.2,48.275,48.275,0,0,1-.332-6.111.713.713,0,0,0-.1-.461.686.686,0,0,0-.265-.175c-3.057-1.365-6.544-1.264-9.886-1.072a43.223,43.223,0,0,0-9.687,1.362c-.364.106-1.643.3-1.7.745s.69.689,1,.758a32,32,0,0,0,4.791.132A46.6,46.6,0,0,1,337.962,441.016Z" transform="translate(-325.878 -430.917)" fill="#00B0DC"/>
          <path id="Path_7649" data-name="Path 7649" d="M336.04,429.719a26.827,26.827,0,0,1,11.523.289,48.328,48.328,0,0,1-2.4-5.631.709.709,0,0,0-.253-.4.686.686,0,0,0-.309-.074c-3.34-.24-6.583,1.043-9.659,2.365a43.226,43.226,0,0,0-8.641,4.585c-.305.224-1.442.843-1.348,1.282s.883.413,1.2.373A32.024,32.024,0,0,0,330.7,431,46.572,46.572,0,0,1,336.04,429.719Z" transform="translate(-324.952 -423.875)" fill="#00B0DC"/>
        </g>
        <g id="Group_1951" data-name="Group 1951" transform="translate(3.038 3.775)">
          <g id="Group_1949" data-name="Group 1949">
            <circle id="Ellipse_141" data-name="Ellipse 141" cx="5.74" cy="5.74" r="5.74" transform="translate(0 1.578) rotate(-7.904)" fill="#d27d60"/>
            <circle id="Ellipse_142" data-name="Ellipse 142" cx="5.74" cy="5.74" r="5.74" transform="translate(0 1.578) rotate(-7.904)" fill="#00B0DC"/>
          </g>
          <g id="Group_1950" data-name="Group 1950" transform="translate(1.86 1.552)">
            <path id="Path_7650" data-name="Path 7650" d="M322.009,442.025a4.652,4.652,0,1,1-5.954-6.529h0a4.651,4.651,0,0,1,5.954,6.529Zm-7.979-4.5a4.507,4.507,0,1,0,2.083-1.9h0A4.484,4.484,0,0,0,314.03,437.529Z" transform="translate(-313.305 -435.089)" fill="#fcf4e8"/>
          </g>
        </g>
      </g>
    </g>
    <g id="Group_1982" data-name="Group 1982" transform="translate(784.886 183)">
      <g id="Group_1937" data-name="Group 1937" transform="translate(0 62.385)">
        <ellipse id="Ellipse_139" data-name="Ellipse 139" cx="7.951" cy="15.188" rx="7.951" ry="15.188" transform="matrix(0.803, -0.597, 0.597, 0.803, 0, 9.486)" fill="#fde3cf"/>
        <g id="Group_1936" data-name="Group 1936" transform="translate(8.987 3.916)">
          <path id="Path_7631" data-name="Path 7631" d="M646.186,255.84s3.539-1.05-.742-7.255S631.9,239.3,631.9,239.3l9.707-9.293s10.285,11.713,10.106,16.166S648.741,255.632,646.186,255.84Z" transform="translate(-631.896 -230.006)" fill="#fde3cf"/>
          <path id="Path_7632" data-name="Path 7632" d="M646.186,255.84s3.539-1.05-.742-7.255S631.9,239.3,631.9,239.3l9.707-9.293s10.285,11.713,10.106,16.166S648.741,255.632,646.186,255.84Z" transform="translate(-631.896 -230.006)" fill="#fde3cf" opacity="0.79" style="mix-blend-mode: multiply;isolation: isolate"/>
        </g>
      </g>
      <path id="Path_7633" data-name="Path 7633" d="M723.968,111.186a294.661,294.661,0,0,0-45.543,35.789C654.7,169.6,646.291,181.82,646.291,181.82s1.995-8.183-7.526-18.164c-5.826-6.108-12.077-6.089-12.33-6.1h0a480.39,480.39,0,0,0,42.93-32.158A349.678,349.678,0,0,0,704.43,90.425S720.1,91.678,723.968,111.186Z" transform="translate(-620.042 -90.425)" fill="#fcf4e8"/>
      <g id="Group_1943" data-name="Group 1943" transform="translate(46.796 32.836)">
        <path id="Path_7634" data-name="Path 7634" d="M711.494,163.8a34.283,34.283,0,0,1,15.9,15.459l5.013-4.392s-9.531-11.856-15.987-15.317Z" transform="translate(-711.494 -159.553)" fill="#00B0DC"/>
        <g id="Group_1938" data-name="Group 1938" transform="translate(12.659 9.618)">
          <path id="Path_7635" data-name="Path 7635" d="M740.076,194.135a29.076,29.076,0,0,1-1.931,12.348,52.37,52.37,0,0,1,6.391-1.784.773.773,0,0,0,.465-.216.737.737,0,0,0,.123-.322c.728-3.557-.2-7.223-1.184-10.717a46.894,46.894,0,0,0-3.714-9.934c-.2-.36-.7-1.669-1.189-1.629s-.568.892-.569,1.234c0,1.623.725,3.487.984,5.1A50.515,50.515,0,0,1,740.076,194.135Z" transform="translate(-738.145 -180.893)" fill="#d27d60"/>
          <path id="Path_7636" data-name="Path 7636" d="M745.2,190.992a29.089,29.089,0,0,1,2.4,12.266A52.308,52.308,0,0,1,753,199.4a.771.771,0,0,0,.363-.361.739.739,0,0,0,.006-.344c-.529-3.591-2.648-6.724-4.768-9.67a46.906,46.906,0,0,0-6.879-8.072c-.309-.271-1.231-1.329-1.673-1.126s-.229,1.032-.114,1.354c.55,1.526,1.871,3.031,2.666,4.461A50.462,50.462,0,0,1,745.2,190.992Z" transform="translate(-738.999 -179.801)" fill="#d27d60"/>
        </g>
        <g id="Group_1939" data-name="Group 1939" transform="translate(12.659 9.618)">
          <path id="Path_7637" data-name="Path 7637" d="M740.076,194.135a29.076,29.076,0,0,1-1.931,12.348,52.37,52.37,0,0,1,6.391-1.784.773.773,0,0,0,.465-.216.737.737,0,0,0,.123-.322c.728-3.557-.2-7.223-1.184-10.717a46.894,46.894,0,0,0-3.714-9.934c-.2-.36-.7-1.669-1.189-1.629s-.568.892-.569,1.234c0,1.623.725,3.487.984,5.1A50.515,50.515,0,0,1,740.076,194.135Z" transform="translate(-738.145 -180.893)" fill="#00B0DC"/>
          <path id="Path_7638" data-name="Path 7638" d="M745.2,190.992a29.089,29.089,0,0,1,2.4,12.266A52.308,52.308,0,0,1,753,199.4a.771.771,0,0,0,.363-.361.739.739,0,0,0,.006-.344c-.529-3.591-2.648-6.724-4.768-9.67a46.906,46.906,0,0,0-6.879-8.072c-.309-.271-1.231-1.329-1.673-1.126s-.229,1.032-.114,1.354c.55,1.526,1.871,3.031,2.666,4.461A50.462,50.462,0,0,1,745.2,190.992Z" transform="translate(-738.999 -179.801)" fill="#00B0DC"/>
        </g>
        <g id="Group_1942" data-name="Group 1942" transform="translate(5.16 2.909)">
          <g id="Group_1940" data-name="Group 1940">
            <path id="Path_7639" data-name="Path 7639" d="M733.574,168.189a6.223,6.223,0,1,1-8.707-1.282A6.223,6.223,0,0,1,733.574,168.189Z" transform="translate(-722.357 -165.678)" fill="#d27d60"/>
            <path id="Path_7640" data-name="Path 7640" d="M733.574,168.189a6.223,6.223,0,1,1-8.707-1.282A6.223,6.223,0,0,1,733.574,168.189Z" transform="translate(-722.357 -165.678)" fill="#00B0DC"/>
          </g>
          <g id="Group_1941" data-name="Group 1941" transform="translate(1.472 1.157)">
            <path id="Path_7641" data-name="Path 7641" d="M729.034,177.982a5.044,5.044,0,1,1,5.515-7.834h0a5.043,5.043,0,0,1-5.515,7.834Zm2.888-9.5a4.887,4.887,0,1,0,2.5,1.759h0A4.862,4.862,0,0,0,731.922,168.481Z" transform="translate(-725.455 -168.114)" fill="#fcf4e8"/>
          </g>
        </g>
      </g>
    </g>
    <g id="Group_1983" data-name="Group 1983" transform="translate(695.691 391.427)">
      <g id="Group_1962" data-name="Group 1962">
        <ellipse id="Ellipse_143" data-name="Ellipse 143" cx="32.725" cy="17.131" rx="32.725" ry="17.131" transform="translate(0 22.819) rotate(-20.405)" fill="#fde3cf"/>
        <g id="Group_1961" data-name="Group 1961" transform="translate(5.312 16.352)">
          <path id="Path_7660" data-name="Path 7660" d="M1849.109,924.308s.042,7.953,15.457,2.832,27.366-22.442,27.366-22.442l13.385,25.677S1874.9,944.6,1865.79,941.554,1848,929.719,1849.109,924.308Z" transform="translate(-1849.014 -904.698)" fill="#fde3cf"/>
          <path id="Path_7661" data-name="Path 7661" d="M1849.109,924.308s.042,7.953,15.457,2.832,27.366-22.442,27.366-22.442l13.385,25.677S1874.9,944.6,1865.79,941.554,1848,929.719,1849.109,924.308Z" transform="translate(-1849.014 -904.698)" fill="#fde3cf" opacity="0.79" style="mix-blend-mode: multiply;isolation: isolate"/>
        </g>
      </g>
      <path id="Path_7662" data-name="Path 7662" d="M1920.831,934.387c-6.3-18.129-10.013-30.268-10.013-30.268-.168.518-3.892,13.462-20.034,21.84-26.381,13.691-42.111,4.639-42.111,4.639s20.229,24.75,52.753,87.455c7.407,14.282,13.857,28.06,19.405,40.828Z" transform="translate(-1843.523 -888.042)" fill="#fcf4e8"/>
      <g id="Group_1968" data-name="Group 1968" transform="translate(32.717 125.313)">
        <path id="Path_7663" data-name="Path 7663" d="M1985.427,1159.324a74.39,74.39,0,0,1-13.714,4.044l6.071,13.015s3.086-1.283,7.643-3.4Z" transform="translate(-1940.836 -1147.337)" fill="#00B0DC"/>
        <g id="Group_1963" data-name="Group 1963">
          <path id="Path_7664" data-name="Path 7664" d="M1951.95,1148.162c-2.311-.147-4.714-.111-6.827-.374a108.827,108.827,0,0,1-12.619-2.272c-8.785-2.167-17.33-5.762-24.384-11.427a112.933,112.933,0,0,1-.155,14.3,1.661,1.661,0,0,0,.166,1.091,1.59,1.59,0,0,0,.592.448c6.92,3.647,15.063,3.943,22.885,4a111.076,111.076,0,0,0,20.343-1.217Z" transform="translate(-1907.358 -1134.089)" fill="#d27d60"/>
          <path id="Path_7665" data-name="Path 7665" d="M1951.3,1171.535c-1.754.56-3.5,1.17-5.134,1.543a108.944,108.944,0,0,1-12.637,2.169c-9,.959-18.256.495-26.82-2.425a112.824,112.824,0,0,1,4.731,13.492,1.664,1.664,0,0,0,.528.969,1.6,1.6,0,0,0,.709.219c7.749,1.068,15.5-1.431,22.877-4.044a128.528,128.528,0,0,0,15.746-6.469Z" transform="translate(-1906.708 -1153.748)" fill="#d27d60"/>
        </g>
        <g id="Group_1964" data-name="Group 1964">
          <path id="Path_7666" data-name="Path 7666" d="M1951.95,1148.162c-2.311-.147-4.714-.111-6.827-.374a108.827,108.827,0,0,1-12.619-2.272c-8.785-2.167-17.33-5.762-24.384-11.427a112.933,112.933,0,0,1-.155,14.3,1.661,1.661,0,0,0,.166,1.091,1.59,1.59,0,0,0,.592.448c6.92,3.647,15.063,3.943,22.885,4a111.076,111.076,0,0,0,20.343-1.217Z" transform="translate(-1907.358 -1134.089)" fill="#00B0DC"/>
          <path id="Path_7667" data-name="Path 7667" d="M1951.3,1171.535c-1.754.56-3.5,1.17-5.134,1.543a108.944,108.944,0,0,1-12.637,2.169c-9,.959-18.256.495-26.82-2.425a112.824,112.824,0,0,1,4.731,13.492,1.664,1.664,0,0,0,.528.969,1.6,1.6,0,0,0,.709.219c7.749,1.068,15.5-1.431,22.877-4.044a128.528,128.528,0,0,0,15.746-6.469Z" transform="translate(-1906.708 -1153.748)" fill="#00B0DC"/>
        </g>
        <g id="Group_1967" data-name="Group 1967" transform="translate(42.066 5.224)">
          <g id="Group_1965" data-name="Group 1965">
            <path id="Path_7668" data-name="Path 7668" d="M1997.794,1145.087a13.409,13.409,0,0,0,0,15.656Z" transform="translate(-1995.269 -1145.087)" fill="#d27d60"/>
            <path id="Path_7669" data-name="Path 7669" d="M1997.794,1145.087a13.409,13.409,0,0,0,0,15.656Z" transform="translate(-1995.269 -1145.087)" fill="#00B0DC"/>
          </g>
          <g id="Group_1966" data-name="Group 1966" transform="translate(2.416 6.93)">
            <path id="Path_7670" data-name="Path 7670" d="M2000.464,1159.676a10.792,10.792,0,0,0,0,3.06Z" transform="translate(-2000.355 -1159.676)" fill="#fcf4e8"/>
          </g>
        </g>
      </g>
    </g>
  </g>
</svg>
