<svg xmlns="http://www.w3.org/2000/svg" width="638" height="393" viewBox="0 0 638 393" fill="none">

<path d="M622.715 113.715H614.285V105.285C614.285 104.023 613.262 103 612 103C610.738 103 609.715 104.023 609.715 
105.285V113.715H601.285C600.023 113.715 599 114.738 599 116C599 117.262 600.023 118.285 601.285 118.285H609.715V126.715C609.715
127.977 610.738 129 612 129C613.262 129 614.285 127.977 614.285 126.715V118.285H622.715C623.977 118.285 625 117.262 625 116C625 
114.738 623.977 113.715 622.715 113.715Z" fill="#00B0DC"></path>


<path d="M80.7148 55.7148H72.2852V47.2852C72.2852 46.0231 71.2621 45 70 45C68.7379 45 67.7148 46.0231 67.7148
 47.2852V55.7148H59.2852C58.0231 55.7148 57 56.7379 57 58C57 59.2621 58.0231 60.2852 59.2852 60.2852H67.7148V68.7148C67.7148 
 69.9769 68.7379 71 70 71C71.2621 71 72.2852 69.9769 72.2852 68.7148V60.2852H80.7148C81.9769 60.2852 83 59.2621 83 58C83 
 56.7379 81.9769 55.7148 80.7148 55.7148Z" fill="#00B0DC"></path>
 
 
 <path d="M557.594 383.594H552.406V378.406C552.406 377.63 551.777 377 551 377C550.223 377 549.594 377.63 549.594 
 378.406V383.594H544.406C543.63 383.594 543 384.223 543 385C543 385.777 543.63 386.406 544.406 386.406H549.594V391.594C549.594 
 392.37 550.223 393 551 393C551.777 393 552.406 392.37 552.406 391.594V386.406H557.594C558.37 386.406 559 385.777 559 385C559 
 384.223 558.37 383.594 557.594 383.594Z" fill="#00B0DC"></path>
 
 <path d="M65.5938 215.594H60.4062V210.406C60.4062 209.63 59.7767 
 209 59 209C58.2233 209 57.5938 209.63 57.5938 210.406V215.594H52.4062C51.6296 215.594 51 216.223 51 217C51 217.777 51.6296 
 218.406 52.4062 218.406H57.5938V223.594C57.5938 224.37 58.2233 225 59 225C59.7767 225 60.4062 224.37 
 60.4062 223.594V218.406H65.5938C66.3704 218.406 67 217.777 67 217C67 216.223 66.3704 215.594 65.5938 215.594Z" fill="#00B0DC"></path>
 
 
 <circle cx="631.5" cy="325.5" r="6.5" fill="#00B0DC"></circle>
 <circle cx="6.5" cy="105.5" r="6.5" fill="#00B0DC"></circle>
 <circle cx="566" cy="275" r="4" fill="#00B0DC"></circle>
 <circle cx="11" cy="4" r="4" fill="#00B0DC"></circle></svg>