<svg width="3434px" height="5770px" viewBox="0 0 3440 5754" xmlns="http://www.w3.org/2000/svg">
<path d="M3440 754H0L0 199.101C0 199.101 112.764 230.999 186.5 229C295.768 226.038 344.3 140.138 453.5 145C566.226 150.019 594.018 251.322 719 259C830.992 265.88 939.888 196.237 1084.5 199.101C1258.86 202.555 1336.92 305.291 1518.25 305.291C1585.17 305.291 1651.58 293.651 1715.63 274.709C1944.63 206.977 2137.46 -9.57501e-05 2440 0C2764.5 0.000102699 2894.12 289.795 3231 199.101C3309.81 177.884 3440 199.101 3440 199.101V754Z"/>
</svg>